<?xml version="1.0"?>
<svg xmlns="http://www.w3.org/2000/svg" width="512" height="512" viewBox="0 0 512 512"><path d="M232,224c.18-10.516,15.822-10.514,16,0C247.82,234.516,232.178,234.514,232,224ZM494.306,451.077a8,8,0,0,1,1.455,6.863l-8,32A8,8,0,0,1,480,496H296a8,8,0,0,1-7.761-6.06l-8-32A8,8,0,0,1,288,448h96V424c-36.754-.17-31.8,4.637-32-32H328a8,8,0,0,1-8,8c-19.453,0-61.568,0-80.7,0l8.506,38.264A8.407,8.407,0,0,1,248,440v12.687l13.657,13.656A8,8,0,0,1,264,472v16a8,8,0,0,1-8,8H200a8,8,0,0,1-8-8V444.944l-21.261-10.63-12.083,18.124a10.451,10.451,0,0,1-.818,1.014c-.328.406-10.215,10.208-10.525,10.548,2.215,2.1,4.9,4.667,4.687,8v16a8,8,0,0,1-8,8H88a8,8,0,0,1-8-8V472c-1.711-1.67,23.3-40.139,24-42.217V304a8,8,0,0,1,6.523-7.858A112.416,112.416,0,0,1,56,200c-10.9-.242-24.733,2.106-32.967-7.014C10.4,181,15.913,158.443,32.128,153.326,39.342,9.9,187.73-9.737,268.8,41.6A8,8,0,0,1,272,48V72h24a8,8,0,0,1,8,8v48c.01,5.553-5.087,8.677-10.248,8a128.456,128.456,0,0,1,2,16c31.929.777,32.162,46.854.243,48H280c.382,38.751-21.353,76.721-54.462,96.151a8.161,8.161,0,0,1,3.583,1.7L274.9,336H320a8,8,0,0,1,8,8h24V320a8,8,0,0,1,8-8h80c54.538.045,76.588,70.748,32,101.952V428a20,20,0,0,1-40,0,4,4,0,0,0-8,0v20h64A8,8,0,0,1,494.306,451.077ZM264,352H232v32h32Zm-62.111,80h28.137l-7.113-32H144a8,8,0,0,1-8-8V376H120v18.725C139.807,402.939,183.489,421.852,201.889,432ZM139.755,200a14.68,14.68,0,0,0,1.9,18.343l16,16c0,.005,18.339,18.339,18.343,18.344V211.314L164.686,200ZM152,251.314l-31.892,31.892c21.631,12.7,48.973,16.141,73.2,9.42ZM200,336h16V312H200Zm-48-24v72h64V352H192a8,8,0,0,1-8-8V312Zm-16,0H120v48h16Zm20.009,115.565L120,412.132v14.451l28.944,11.579ZM249.9,336,232,321.081V336ZM264,200H203.314L192,211.314v57.373l17.788,17.788a95.594,95.594,0,0,0,29.815-22.5c-3.985.41-6.306-5.567-9.946-2.323-7.56,7.309-18.624-3.753-11.314-11.314A19.4,19.4,0,0,1,240,246.41a19.3,19.3,0,0,1,12.666-1.136A95.736,95.736,0,0,0,264,200ZM288,88H273.821A127.043,127.043,0,0,1,288,115.332Zm8,96c10.5-.182,10.529-15.836,0-16-3.843,0-50.747,0-56,0a8,8,0,0,1,0-16h39.7c-2.41-40.765-29.384-78.635-66.908-94.684A8,8,0,0,1,219.2,42.654,128.287,128.287,0,0,1,256,67.069V52.355C218.224,28.942,122.417,15.848,78.712,72.007c6.585-.095,10.433,8.495,5.8,13.328A111.771,111.771,0,0,0,56.287,152H96a8,8,0,0,1,0,16H40a8,8,0,0,0,0,16ZM106.764,273.923,140.686,240l-40-40H72A96.306,96.306,0,0,0,106.764,273.923Zm23.579,184.42,7.422-7.421-22.411-8.964L96,474.216V480h40v-4.686C131.194,470.507,124.156,465.423,130.343,458.343ZM248,475.313l-13.657-13.656c-3.421-2.805-2.111-9.85-2.343-13.657H208v32h40ZM312,384V352H280v32Zm16-8h28.687l8-8-8-8H328Zm56,32c-2.937-54.35,72.651-66.462,86.734-14.456,13.079-15.11,12.114-39.912-2.448-53.824A39.709,39.709,0,0,0,440,328H368v20.686c21.543,21.522,21.461,17.154,0,38.628V408Zm16,40h8V428c.7-26.38,39.312-26.361,40,0,.015,5.219,7.98,5.234,8,0V404c-.966-36.915-55.035-36.92-56,0Zm77.754,16H298.246l4,16H473.754Z"/></svg>
